<svg viewBox="0 0 200 200" xmlns="http://www.w3.org/2000/svg">
  <circle cx="100" cy="100" r="95" fill="#16181d"/>
  <circle cx="100" cy="100" r="95" fill="none" stroke="#f0b429" stroke-width="6"/>
  <g transform="translate(100,105) scale(0.85) translate(-100,-105)">
    <path d="M45 125 Q45 85 105 90 Q155 95 168 125 Q155 155 105 160 Q45 165 45 125 Z" fill="#f0b429"/>
    <path d="M45 125 L20 102 L20 148 Z" fill="#f0b429"/>
    <circle cx="100" cy="115" r="9" fill="#16181d"/>
    <circle cx="103" cy="112" r="3" fill="#f0b429"/>
    <path d="M88 100 L112 104" stroke="#16181d" stroke-width="4" stroke-linecap="round"/>
    <circle cx="155" cy="125" r="6" fill="#16181d"/>
    <g transform="translate(150,130)">
      <path d="M0 0 Q15 -5 22 -22 Q26 -32 32 -28 Q28 -20 24 -10" fill="none" stroke="#6b4423" stroke-width="6" stroke-linecap="round"/>
      <ellipse cx="32" cy="-26" rx="9" ry="6" fill="#7a4f2a" transform="rotate(-30 32 -26)"/>
    </g>
    <path d="M118 132 Q135 148 152 138 Q148 152 130 160 Q108 156 118 132 Z" fill="#d99a1f"/>
    <circle cx="185" cy="100" r="4" fill="none" stroke="#ececec" stroke-width="2" opacity="0.8"/>
    <circle cx="190" cy="88" r="3" fill="none" stroke="#ececec" stroke-width="2" opacity="0.7"/>
    <circle cx="186" cy="78" r="2" fill="none" stroke="#ececec" stroke-width="1.5" opacity="0.6"/>
    <ellipse cx="90" cy="78" rx="42" ry="14" fill="#6b4423"/>
    <path d="M60 78 Q60 35 90 35 Q120 35 120 78 Z" fill="#7a4f2a"/>
    <path d="M55 78 L35 70 L43 60 L65 70 Z" fill="#6b4423"/>
    <path d="M125 78 L145 70 L137 60 L115 70 Z" fill="#6b4423"/>
    <rect x="75" y="33" width="30" height="8" rx="2" fill="#f0b429"/>
    <path d="M90 35 Q120 35 120 78" stroke="#5a3a1f" stroke-width="2" fill="none"/>
  </g>
</svg>